<svg width="50" height="50" viewBox="0 0 50 50" fill="none" xmlns="http://www.w3.org/2000/svg">
<circle cx="25" cy="24.999" r="24.5" stroke="white"/>
<path fill-rule="evenodd" clip-rule="evenodd" d="M16 24.999C16 24.8222 16.0702 24.6527 16.1952 24.5277C16.3202 24.4027 16.4898 24.3324 16.6666 24.3324H32.3884L28.193 20.1384C28.0678 20.0132 27.9975 19.8434 27.9975 19.6664C27.9975 19.4894 28.0678 19.3197 28.193 19.1945C28.3181 19.0693 28.4879 18.999 28.6649 18.999C28.8419 18.999 29.0117 19.0693 29.1368 19.1945L34.4694 24.5271C34.5315 24.589 34.5807 24.6626 34.6143 24.7435C34.6479 24.8245 34.6652 24.9113 34.6652 24.999C34.6652 25.0867 34.6479 25.1735 34.6143 25.2545C34.5807 25.3355 34.5315 25.409 34.4694 25.471L29.1368 30.8035C29.0117 30.9287 28.8419 30.999 28.6649 30.999C28.4879 30.999 28.3181 30.9287 28.193 30.8035C28.0678 30.6784 27.9975 30.5086 27.9975 30.3316C27.9975 30.1546 28.0678 29.9848 28.193 29.8597L32.3884 25.6656H16.6666C16.4898 25.6656 16.3202 25.5954 16.1952 25.4704C16.0702 25.3454 16 25.1758 16 24.999Z" fill="white"/>
</svg>
