<svg width="50" height="50" viewBox="0 0 50 50" fill="none" xmlns="http://www.w3.org/2000/svg">
<circle cx="25" cy="24.999" r="24.5" stroke="#D6D6D6"/>
<path fill-rule="evenodd" clip-rule="evenodd" d="M34.6652 24.999C34.6652 25.1758 34.595 25.3454 34.47 25.4704C34.345 25.5954 34.1754 25.6656 33.9986 25.6656H18.2769L22.4723 29.8597C22.5974 29.9848 22.6677 30.1546 22.6677 30.3316C22.6677 30.5086 22.5974 30.6784 22.4723 30.8035C22.3471 30.9287 22.1773 30.999 22.0003 30.999C21.8233 30.999 21.6536 30.9287 21.5284 30.8035L16.1958 25.471C16.1337 25.409 16.0845 25.3355 16.0509 25.2545C16.0173 25.1735 16 25.0867 16 24.999C16 24.9113 16.0173 24.8245 16.0509 24.7435C16.0845 24.6626 16.1337 24.589 16.1958 24.5271L21.5284 19.1945C21.6536 19.0693 21.8233 18.999 22.0003 18.999C22.1773 18.999 22.3471 19.0693 22.4723 19.1945C22.5974 19.3197 22.6677 19.4894 22.6677 19.6664C22.6677 19.8434 22.5974 20.0132 22.4723 20.1384L18.2769 24.3325H33.9986C34.1754 24.3325 34.345 24.4027 34.47 24.5277C34.595 24.6527 34.6652 24.8222 34.6652 24.999Z" fill="white"/>
</svg>
