<svg width="37" height="37" viewBox="0 0 37 37" fill="none" xmlns="http://www.w3.org/2000/svg">
<path fill-rule="evenodd" clip-rule="evenodd" d="M11.0017 0.501656C12.9212 0.412011 13.5332 0.39209 18.4226 0.39209C23.3121 0.39209 23.9241 0.413671 25.8419 0.501656C27.7597 0.58964 29.0688 0.900077 30.2142 1.34996C31.4137 1.80981 32.5019 2.52863 33.4019 3.45828C34.3182 4.36966 35.0252 5.47196 35.4768 6.69047C35.9219 7.85253 36.2262 9.1806 36.3146 11.1229C36.403 13.0735 36.4226 13.6944 36.4226 18.6531C36.4226 23.6134 36.4013 24.2343 36.3146 26.1816C36.2279 28.1239 35.9219 29.452 35.4768 30.614C35.0251 31.8327 34.3171 32.9368 33.4019 33.8495C32.5019 34.7792 31.4137 35.4963 30.2142 35.9545C29.0688 36.4061 27.7597 36.7149 25.8452 36.8045C23.9241 36.8941 23.3121 36.9141 18.4226 36.9141C13.5332 36.9141 12.9212 36.8925 11.0017 36.8045C9.08715 36.7165 7.77806 36.4061 6.63261 35.9545C5.43139 35.4963 4.34304 34.778 3.44333 33.8495C2.52759 32.9376 1.81894 31.834 1.36679 30.6157C0.923335 29.4536 0.618971 28.1255 0.530607 26.1832C0.442244 24.2326 0.422607 23.6118 0.422607 18.6531C0.422607 13.6927 0.44388 13.0719 0.530607 11.1262C0.617335 9.1806 0.923335 7.85253 1.36679 6.69047C1.81961 5.4721 2.5288 4.36852 3.44497 3.45662C4.3434 2.5278 5.43065 1.80888 6.63097 1.34996C7.77643 0.900077 9.08552 0.591301 11.0001 0.501656H11.0017ZM25.6962 3.78863C23.7981 3.70065 23.2286 3.68239 18.4226 3.68239C13.6166 3.68239 13.0472 3.70065 11.149 3.78863C9.39315 3.86998 8.44079 4.16713 7.80588 4.41781C6.96643 4.74983 6.36588 5.14327 5.73588 5.7824C5.13868 6.37182 4.67908 7.08936 4.39079 7.88241C4.1437 8.52653 3.85079 9.4927 3.77061 11.274C3.68388 13.1997 3.66588 13.7774 3.66588 18.6531C3.66588 23.5288 3.68388 24.1065 3.77061 26.0322C3.85079 27.8134 4.1437 28.7796 4.39079 29.4237C4.67879 30.2156 5.13861 30.9344 5.73588 31.5238C6.31679 32.1297 7.02533 32.5962 7.80588 32.8883C8.44079 33.139 9.39315 33.4362 11.149 33.5175C13.0472 33.6055 13.615 33.6238 18.4226 33.6238C23.2302 33.6238 23.7981 33.6055 25.6962 33.5175C27.4521 33.4362 28.4044 33.139 29.0393 32.8883C29.8788 32.5563 30.4793 32.1629 31.1093 31.5238C31.7066 30.9344 32.1664 30.2156 32.4544 29.4237C32.7015 28.7796 32.9944 27.8134 33.0746 26.0322C33.1613 24.1065 33.1793 23.5288 33.1793 18.6531C33.1793 13.7774 33.1613 13.1997 33.0746 11.274C32.9944 9.4927 32.7015 8.52653 32.4544 7.88241C32.1272 7.03079 31.7393 6.42154 31.1093 5.7824C30.5283 5.17659 29.821 4.71033 29.0393 4.41781C28.4044 4.16713 27.4521 3.86998 25.6962 3.78863ZM16.1235 24.2824C17.4075 24.8247 18.8372 24.8979 20.1685 24.4895C21.4998 24.0811 22.65 23.2165 23.4227 22.0434C24.1954 20.8702 24.5427 19.4613 24.4052 18.0573C24.2678 16.6532 23.6541 15.3412 22.669 14.3451C22.041 13.7085 21.2817 13.221 20.4457 12.9177C19.6097 12.6145 18.7179 12.503 17.8343 12.5915C16.9508 12.6799 16.0976 12.9659 15.3361 13.429C14.5746 13.8921 13.9238 14.5207 13.4306 15.2696C12.9373 16.0184 12.6138 16.869 12.4835 17.7599C12.3531 18.6508 12.419 19.56 12.6766 20.4219C12.9341 21.2839 13.3768 22.0772 13.9729 22.7447C14.5689 23.4123 15.3034 23.9374 16.1235 24.2824ZM11.8804 12.016C12.7396 11.1444 13.7595 10.4531 14.882 9.98137C16.0045 9.50967 17.2076 9.26689 18.4226 9.26689C19.6376 9.26689 20.8407 9.50967 21.9632 9.98137C23.0857 10.4531 24.1057 11.1444 24.9648 12.016C25.8239 12.8876 26.5054 13.9224 26.9704 15.0611C27.4353 16.1999 27.6747 17.4205 27.6747 18.6531C27.6747 19.8857 27.4353 21.1062 26.9704 22.245C26.5054 23.3838 25.8239 24.4185 24.9648 25.2901C23.2297 27.0504 20.8764 28.0393 18.4226 28.0393C15.9688 28.0393 13.6155 27.0504 11.8804 25.2901C10.1453 23.5299 9.17057 21.1424 9.17057 18.6531C9.17057 16.1637 10.1453 13.7763 11.8804 12.016ZM29.7266 10.6647C29.9395 10.461 30.1099 10.216 30.2278 9.9442C30.3457 9.67243 30.4087 9.37943 30.4129 9.08254C30.4172 8.78565 30.3627 8.49092 30.2527 8.21578C30.1426 7.94064 29.9793 7.69069 29.7724 7.48074C29.5654 7.27078 29.319 7.10509 29.0478 6.99347C28.7766 6.88184 28.4861 6.82656 28.1934 6.83088C27.9008 6.83521 27.612 6.89907 27.3441 7.01866C27.0762 7.13826 26.8347 7.31117 26.6339 7.52715C26.2433 7.94721 26.0295 8.50515 26.0378 9.08254C26.0461 9.65994 26.2758 10.2113 26.6783 10.6196C27.0808 11.028 27.6243 11.2611 28.1934 11.2695C28.7626 11.2779 29.3126 11.061 29.7266 10.6647Z" fill="#BFBEBE"/>
</svg>
