<svg width="37" height="34" viewBox="0 0 37 34" fill="none" xmlns="http://www.w3.org/2000/svg">
<path d="M34.0543 0.746035C33.6097 0.77885 33.1733 0.884666 32.7621 1.05936H32.7566C32.3619 1.21812 30.4853 2.01899 27.6323 3.23293L17.4087 7.60116C10.0728 10.7344 2.8614 13.8198 2.8614 13.8198L2.94727 13.7861C2.94727 13.7861 2.45008 13.9519 1.93073 14.313C1.60988 14.5201 1.33378 14.7911 1.11916 15.1096C0.864328 15.489 0.659357 16.0693 0.735529 16.6692C0.860173 17.6836 1.50832 18.292 1.97366 18.6278C2.44454 18.9678 2.89325 19.1266 2.89325 19.1266H2.90433L9.66697 21.4379C9.97027 22.4256 11.7277 28.2874 12.1502 29.6376C12.3994 30.4441 12.6418 30.9485 12.9451 31.3335C13.0919 31.5302 13.2636 31.6946 13.47 31.8266C13.5773 31.8899 13.6917 31.9399 13.8107 31.9756L13.7414 31.9587C13.7622 31.9643 13.7788 31.9812 13.7941 31.9868C13.8495 32.0023 13.8869 32.0079 13.9575 32.0191C15.028 32.3479 15.8881 31.6735 15.8881 31.6735L15.9366 31.6341L19.9293 27.946L26.6213 33.1544L26.7737 33.2204C28.1683 33.8414 29.5809 33.4958 30.3274 32.886C31.0794 32.272 31.3716 31.4866 31.3716 31.4866L31.4201 31.3602L36.5915 4.48341C36.7383 3.82023 36.7757 3.19921 36.6136 2.59646C36.4465 1.98643 36.0607 1.46177 35.532 1.12539C35.088 0.851573 34.5732 0.719407 34.0543 0.746035ZM33.9144 3.62634C33.9088 3.71486 33.9255 3.70502 33.8867 3.87503V3.89049L28.7638 30.4876C28.7417 30.5256 28.7043 30.6085 28.6018 30.6914C28.4938 30.7785 28.4079 30.8333 27.9578 30.652L19.7728 24.2859L14.8286 28.8578L15.8673 22.1277L29.2402 9.48249C29.7914 8.96263 29.6072 8.85304 29.6072 8.85304C29.646 8.21516 28.7749 8.66617 28.7749 8.66617L11.9119 19.2643L11.9064 19.2362L3.82393 16.4753V16.4697L3.80316 16.4655C3.81733 16.4607 3.8312 16.4551 3.8447 16.4486L3.88902 16.4261L3.93196 16.4107C3.93196 16.4107 11.1488 13.3252 18.4848 10.192C22.1577 8.62262 25.8582 7.04196 28.7043 5.8224C31.5503 4.60986 33.654 3.72048 33.7731 3.67271C33.8867 3.62775 33.8327 3.62774 33.9144 3.62774V3.62634Z" fill="#BFBEBE"/>
</svg>
