<svg width="25" height="25" viewBox="0 0 25 25" fill="none" xmlns="http://www.w3.org/2000/svg">
<path d="M12.5 25C19.4035 25 25 19.4035 25 12.5C25 5.59646 19.4035 0 12.5 0C5.59646 0 0 5.59646 0 12.5C0 19.4035 5.59646 25 12.5 25Z" fill="url(#paint0_linear_669:3)"/>
<path d="M4.65534 13.1115C6.11658 12.3066 7.74772 11.6348 9.27178 10.9596C11.8938 9.85364 14.5262 8.76687 17.1851 7.7551C17.7025 7.5827 18.632 7.41411 18.7231 8.18078C18.6732 9.26598 18.4679 10.3448 18.3271 11.4237C17.9696 13.7962 17.5565 16.1606 17.1537 18.5253C17.0149 19.3129 16.0281 19.7207 15.3968 19.2166C13.8795 18.1917 12.3505 17.1768 10.8526 16.1282C10.3619 15.6296 10.8169 14.9136 11.2552 14.5575C12.5049 13.326 13.8302 12.2796 15.0145 10.9844C15.334 10.2129 14.3901 10.8631 14.0787 11.0623C12.3679 12.2413 10.6989 13.4922 8.89517 14.5284C7.97382 15.0356 6.89996 14.6021 5.97902 14.3191C5.15328 13.9772 3.94327 13.6328 4.65525 13.1115L4.65534 13.1115Z" fill="white"/>
<defs>
<linearGradient id="paint0_linear_669:3" x1="9.37646" y1="1.0425" x2="3.12646" y2="15.625" gradientUnits="userSpaceOnUse">
<stop stop-color="#37AEE2"/>
<stop offset="1" stop-color="#1E96C8"/>
</linearGradient>
</defs>
</svg>
