<svg width="17" height="17" viewBox="0 0 17 17" fill="none" xmlns="http://www.w3.org/2000/svg">
<path d="M0.5 8.5C0.5 4.08169 4.08169 0.5 8.5 0.5C12.9183 0.5 16.5 4.08169 16.5 8.5C16.5 12.9183 12.9183 16.5 8.5 16.5C4.08169 16.5 0.5 12.9183 0.5 8.5Z" fill="#40B3E0" stroke="white"/>
<path d="M12.636 4.88949L11.1177 12.5441C11.1177 12.5441 10.9054 13.0749 10.3215 12.8201L6.81806 10.1341L5.54412 9.51841L3.3996 8.79644C3.3996 8.79644 3.07049 8.6797 3.03862 8.42489C3.00674 8.17009 3.41023 8.0321 3.41023 8.0321L11.9352 4.68788C11.9352 4.68788 12.6359 4.38002 12.6359 4.88963" fill="white"/>
<path d="M6.54885 12.458C6.54885 12.458 6.44659 12.4485 6.31909 12.045C6.19178 11.6415 5.54412 9.51828 5.54412 9.51828L10.6931 6.24843C10.6931 6.24843 10.9904 6.06794 10.9798 6.24843C10.9798 6.24843 11.0329 6.28031 10.8736 6.42892C10.7144 6.57761 6.82875 10.0704 6.82875 10.0704" fill="#D2E5F1"/>
<path d="M8.16139 11.1639L6.77569 12.4273C6.77569 12.4273 6.66732 12.5095 6.54885 12.458L6.81421 10.1112" fill="#B5CFE4"/>
</svg>
