<svg width="12" height="13" viewBox="0 0 12 13" fill="none" xmlns="http://www.w3.org/2000/svg">
<circle cx="6" cy="6.375" r="5.5" stroke="black"/>
<path d="M5.45276 7.57324C5.45862 7.22461 5.49817 6.94922 5.57141 6.74707C5.64465 6.54492 5.79407 6.3208 6.01965 6.07471L6.59534 5.48145C6.84143 5.20312 6.96448 4.9043 6.96448 4.58496C6.96448 4.27734 6.88391 4.03711 6.72278 3.86426C6.56165 3.68848 6.32727 3.60059 6.01965 3.60059C5.72083 3.60059 5.48059 3.67969 5.29895 3.83789C5.11731 3.99609 5.02649 4.2085 5.02649 4.4751H4.2135C4.21936 4.00049 4.38782 3.61816 4.71887 3.32812C5.05286 3.03516 5.48645 2.88867 6.01965 2.88867C6.57336 2.88867 7.00403 3.03809 7.31165 3.33691C7.62219 3.63281 7.77747 4.04004 7.77747 4.55859C7.77747 5.07129 7.54016 5.57666 7.06555 6.07471L6.58655 6.54932C6.37268 6.78662 6.26575 7.12793 6.26575 7.57324H5.45276ZM5.4176 8.96631C5.4176 8.83447 5.45715 8.72461 5.53625 8.63672C5.61829 8.5459 5.7384 8.50049 5.89661 8.50049C6.05481 8.50049 6.17493 8.5459 6.25696 8.63672C6.33899 8.72461 6.38 8.83447 6.38 8.96631C6.38 9.09814 6.33899 9.20801 6.25696 9.2959C6.17493 9.38086 6.05481 9.42334 5.89661 9.42334C5.7384 9.42334 5.61829 9.38086 5.53625 9.2959C5.45715 9.20801 5.4176 9.09814 5.4176 8.96631Z" fill="black"/>
</svg>
