<svg width="37" height="37" viewBox="0 0 37 37" fill="none" xmlns="http://www.w3.org/2000/svg">
<path fill-rule="evenodd" clip-rule="evenodd" d="M31.4742 5.63864C29.8137 3.94298 27.838 2.59845 25.6616 1.68294C23.4853 0.767438 21.1514 0.299159 18.7954 0.305234C8.91587 0.305234 0.873287 8.46232 0.869294 18.489C0.869294 21.6935 1.69392 24.8211 3.2613 27.5799L0.719543 37.001L10.2217 34.471C12.8501 35.9225 15.7948 36.6837 18.7874 36.685H18.7954C28.6729 36.685 36.7155 28.5279 36.7195 18.5012C36.7263 16.112 36.2662 13.7451 35.3659 11.5373C34.4656 9.32953 33.1429 7.32469 31.4742 5.63864ZM18.7954 33.6162H18.7894C16.1209 33.6165 13.5015 32.8881 11.206 31.5076L10.663 31.1794L5.02436 32.6804L6.52785 27.1039L6.17444 26.5327C4.68251 24.1231 3.89271 21.3346 3.89624 18.489C3.90024 10.1557 10.5831 3.37604 18.8014 3.37604C20.7586 3.37163 22.6973 3.76107 24.5052 4.52182C26.313 5.28258 27.9543 6.39953 29.3338 7.80805C30.7207 9.20985 31.82 10.8766 32.5682 12.712C33.3163 14.5474 33.6985 16.5151 33.6925 18.5012C33.6885 26.8345 27.0057 33.6162 18.7954 33.6162ZM26.9677 22.2951C26.5185 22.0662 24.3182 20.9684 23.9069 20.8164C23.4975 20.6645 23.2 20.5896 22.9005 21.0433C22.601 21.497 21.7425 22.52 21.4809 22.8238C21.2193 23.1277 20.9578 23.1641 20.5105 22.9372C20.0633 22.7104 18.6197 22.2303 16.9085 20.6828C15.5768 19.4775 14.6782 17.9907 14.4167 17.535C14.1551 17.0792 14.3887 16.8341 14.6144 16.6073C14.816 16.4047 15.0616 16.0765 15.2852 15.8112C15.5089 15.5458 15.5827 15.3575 15.7325 15.0536C15.8822 14.7498 15.8084 14.4844 15.6946 14.2576C15.5827 14.0287 14.6862 11.7924 14.3129 10.8829C13.9515 10.0018 13.5821 10.1193 13.3065 10.1071C13.0212 10.0953 12.7356 10.0899 12.45 10.0909C12.2229 10.0968 11.9994 10.1502 11.7936 10.2478C11.5878 10.3454 11.4041 10.4851 11.254 10.6581C10.8427 11.1138 9.68658 12.2117 9.68658 14.448C9.68658 16.6842 11.2919 18.8455 11.5155 19.1494C11.7392 19.4532 14.6743 24.0412 19.1668 26.0101C20.237 26.478 21.0716 26.7575 21.7205 26.9682C22.7927 27.3146 23.7691 27.2639 24.5418 27.1485C25.4024 27.0188 27.1914 26.0506 27.5647 24.9892C27.9381 23.9278 27.9381 23.0183 27.8263 22.8279C27.7145 22.6375 27.413 22.522 26.9677 22.2951Z" fill="#BFBEBE"/>
</svg>
